<svg viewBox="0 0 760 340" width="100%" style="max-width:760px;">
  <line x1="50" y1="240.0" x2="740" y2="240.0" stroke="#d9d5c4"/><text x="44" y="243.0" font-size="9" fill="#7c8579" text-anchor="end" font-family="IBM Plex Mono, monospace">0.0</text><line x1="50" y1="218.0" x2="740" y2="218.0" stroke="#d9d5c4"/><text x="44" y="221.0" font-size="9" fill="#7c8579" text-anchor="end" font-family="IBM Plex Mono, monospace">0.1</text><line x1="50" y1="196.0" x2="740" y2="196.0" stroke="#d9d5c4"/><text x="44" y="199.0" font-size="9" fill="#7c8579" text-anchor="end" font-family="IBM Plex Mono, monospace">0.2</text><line x1="50" y1="174.0" x2="740" y2="174.0" stroke="#d9d5c4"/><text x="44" y="177.0" font-size="9" fill="#7c8579" text-anchor="end" font-family="IBM Plex Mono, monospace">0.3</text><line x1="50" y1="152.0" x2="740" y2="152.0" stroke="#d9d5c4"/><text x="44" y="155.0" font-size="9" fill="#7c8579" text-anchor="end" font-family="IBM Plex Mono, monospace">0.4</text><line x1="50" y1="130.0" x2="740" y2="130.0" stroke="#d9d5c4"/><text x="44" y="133.0" font-size="9" fill="#7c8579" text-anchor="end" font-family="IBM Plex Mono, monospace">0.5</text>
  <rect x="61.5" y="137.8" width="34.5" height="102.2" fill="#3d6b52"><title>Afghanistan: precision 0.464, n=80439</title></rect><text x="78.8" y="133.8" font-size="9" fill="#4a544d" text-anchor="middle" font-family="IBM Plex Mono, monospace">0.46</text><rect x="119.0" y="162.6" width="34.5" height="77.4" fill="#3d6b52"><title>Somalia: precision 0.352, n=25771</title></rect><text x="136.2" y="158.6" font-size="9" fill="#4a544d" text-anchor="middle" font-family="IBM Plex Mono, monospace">0.35</text><rect x="176.5" y="155.2" width="34.5" height="84.8" fill="#3d6b52"><title>Pakistan: precision 0.386, n=23869</title></rect><text x="193.8" y="151.2" font-size="9" fill="#4a544d" text-anchor="middle" font-family="IBM Plex Mono, monospace">0.39</text><rect x="234.0" y="176.2" width="34.5" height="63.8" fill="#6b5a8c"><title>Ethiopia: precision 0.290, n=23846</title></rect><text x="251.2" y="172.2" font-size="9" fill="#4a544d" text-anchor="middle" font-family="IBM Plex Mono, monospace">0.29</text><rect x="291.5" y="175.7" width="34.5" height="64.3" fill="#6b5a8c"><title>Colombia: precision 0.292, n=21118</title></rect><text x="308.8" y="171.7" font-size="9" fill="#4a544d" text-anchor="middle" font-family="IBM Plex Mono, monospace">0.29</text><rect x="349.0" y="156.8" width="34.5" height="83.2" fill="#3d6b52"><title>Sudan: precision 0.378, n=16677</title></rect><text x="366.2" y="152.8" font-size="9" fill="#4a544d" text-anchor="middle" font-family="IBM Plex Mono, monospace">0.38</text><rect x="406.5" y="195.5" width="34.5" height="44.5" fill="#6b5a8c"><title>South Sudan: precision 0.202, n=5516</title></rect><text x="423.8" y="191.5" font-size="9" fill="#4a544d" text-anchor="middle" font-family="IBM Plex Mono, monospace">0.20</text><rect x="464.0" y="211.2" width="34.5" height="28.8" fill="#9c4a2f"><title>Kenya: precision 0.131, n=5088</title></rect><text x="481.2" y="207.2" font-size="9" fill="#4a544d" text-anchor="middle" font-family="IBM Plex Mono, monospace">0.13</text><rect x="521.5" y="142.0" width="34.5" height="98.0" fill="#3d6b52"><title>Venezuela: precision 0.445, n=3570</title></rect><text x="538.8" y="138.0" font-size="9" fill="#4a544d" text-anchor="middle" font-family="IBM Plex Mono, monospace">0.45</text><rect x="579.0" y="124.4" width="34.5" height="115.6" fill="#3d6b52"><title>Ecuador: precision 0.525, n=1436</title></rect><text x="596.2" y="120.4" font-size="9" fill="#4a544d" text-anchor="middle" font-family="IBM Plex Mono, monospace">0.53</text><rect x="636.5" y="240.0" width="34.5" height="0.0" fill="#9c4a2f"><title>Kyrgyzstan: precision 0.000, n=1020</title></rect><text x="653.8" y="236.0" font-size="9" fill="#4a544d" text-anchor="middle" font-family="IBM Plex Mono, monospace">0.00</text><rect x="694.0" y="130.0" width="34.5" height="110.0" fill="#3d6b52"><title>Haiti: precision 0.500, n=745</title></rect><text x="711.2" y="126.0" font-size="9" fill="#4a544d" text-anchor="middle" font-family="IBM Plex Mono, monospace">0.50</text>
  <text x="78.8" y="254.0" font-size="9" fill="#1d2420" text-anchor="end" font-family="IBM Plex Sans" transform="rotate(-40 78.8 254.0)">Afghanistan</text><text x="136.2" y="254.0" font-size="9" fill="#1d2420" text-anchor="end" font-family="IBM Plex Sans" transform="rotate(-40 136.2 254.0)">Somalia</text><text x="193.8" y="254.0" font-size="9" fill="#1d2420" text-anchor="end" font-family="IBM Plex Sans" transform="rotate(-40 193.8 254.0)">Pakistan</text><text x="251.2" y="254.0" font-size="9" fill="#1d2420" text-anchor="end" font-family="IBM Plex Sans" transform="rotate(-40 251.2 254.0)">Ethiopia</text><text x="308.8" y="254.0" font-size="9" fill="#1d2420" text-anchor="end" font-family="IBM Plex Sans" transform="rotate(-40 308.8 254.0)">Colombia</text><text x="366.2" y="254.0" font-size="9" fill="#1d2420" text-anchor="end" font-family="IBM Plex Sans" transform="rotate(-40 366.2 254.0)">Sudan</text><text x="423.8" y="254.0" font-size="9" fill="#1d2420" text-anchor="end" font-family="IBM Plex Sans" transform="rotate(-40 423.8 254.0)">South Sudan</text><text x="481.2" y="254.0" font-size="9" fill="#1d2420" text-anchor="end" font-family="IBM Plex Sans" transform="rotate(-40 481.2 254.0)">Kenya</text><text x="538.8" y="254.0" font-size="9" fill="#1d2420" text-anchor="end" font-family="IBM Plex Sans" transform="rotate(-40 538.8 254.0)">Venezuela</text><text x="596.2" y="254.0" font-size="9" fill="#1d2420" text-anchor="end" font-family="IBM Plex Sans" transform="rotate(-40 596.2 254.0)">Ecuador</text><text x="653.8" y="254.0" font-size="9" fill="#1d2420" text-anchor="end" font-family="IBM Plex Sans" transform="rotate(-40 653.8 254.0)">Kyrgyzstan</text><text x="711.2" y="254.0" font-size="9" fill="#1d2420" text-anchor="end" font-family="IBM Plex Sans" transform="rotate(-40 711.2 254.0)">Haiti</text>
</svg>